<?xml version="1.0" standalone="no"?>
<!DOCTYPE svg PUBLIC "-//W3C//DTD SVG 20010904//EN"
 "http://www.w3.org/TR/2001/REC-SVG-20010904/DTD/svg10.dtd">
<svg version="1.0" xmlns="http://www.w3.org/2000/svg"
 width="1080.000000pt" height="1080.000000pt" viewBox="0 0 1080.000000 1080.000000"
 preserveAspectRatio="xMidYMid meet">
<metadata>
Created by potrace 1.14, written by Peter Selinger 2001-2017
</metadata>
<g transform="translate(0.000000,1080.000000) scale(0.100000,-0.100000)"
fill="#000000" stroke="none">
<path d="M5128 10795 c-1 -1 -50 -6 -108 -9 -58 -4 -123 -9 -145 -11 -97 -10
-154 -17 -210 -25 -33 -5 -78 -12 -100 -15 -22 -3 -51 -8 -65 -11 -14 -2 -38
-7 -55 -9 -16 -3 -53 -10 -81 -16 -28 -5 -64 -12 -80 -15 -187 -33 -635 -168
-849 -255 -600 -244 -1130 -566 -1566 -951 -35 -31 -75 -66 -89 -78 -87 -74
-325 -318 -440 -451 -514 -589 -891 -1277 -1113 -2029 -31 -104 -93 -351 -101
-402 -3 -21 -10 -57 -15 -80 -6 -24 -12 -59 -16 -78 -3 -19 -10 -57 -15 -85
-5 -27 -12 -75 -15 -105 -3 -30 -8 -62 -10 -70 -2 -8 -7 -46 -10 -85 -4 -38
-8 -81 -10 -95 -13 -91 -20 -253 -20 -505 0 -301 6 -439 30 -630 3 -22 7 -60
10 -85 3 -25 7 -56 10 -70 3 -14 7 -43 10 -65 25 -206 138 -671 216 -890 10
-27 32 -90 49 -140 79 -220 223 -536 346 -752 30 -53 54 -97 54 -99 0 -9 247
-392 260 -404 3 -3 30 -39 60 -80 203 -282 537 -646 794 -865 32 -27 63 -55
70 -60 10 -9 115 -96 156 -129 8 -6 58 -43 110 -82 578 -429 1216 -731 1910
-904 217 -54 502 -106 695 -126 28 -3 66 -7 85 -9 171 -20 711 -27 900 -12
166 13 296 26 324 32 11 2 44 7 71 10 28 3 59 8 70 10 11 3 38 7 60 10 61 8
280 54 370 77 44 11 88 22 99 24 10 2 44 11 75 20 31 9 64 18 74 20 36 6 372
123 447 154 41 17 80 33 85 34 65 19 439 200 594 288 274 156 540 338 769 526
114 94 136 113 270 237 185 171 424 431 564 614 15 20 31 41 35 46 400 517
723 1157 903 1790 69 246 113 453 164 777 3 15 8 62 11 105 4 43 9 86 11 97
11 58 19 265 19 501 0 343 -13 541 -50 785 -2 14 -7 45 -10 70 -3 25 -8 52
-10 60 -2 8 -7 35 -10 60 -12 86 -86 410 -115 505 -6 17 -26 82 -45 145 -41
134 -98 297 -126 357 -10 24 -19 49 -19 57 0 8 -4 17 -9 20 -5 3 -12 17 -15
31 -16 65 -198 433 -306 620 -271 469 -588 869 -981 1240 -119 113 -257 232
-303 265 -12 8 -28 21 -36 29 -31 30 -255 193 -378 274 -200 132 -321 203
-547 317 -477 243 -948 399 -1520 504 -64 12 -121 20 -220 31 -27 3 -61 8 -75
10 -14 2 -59 7 -100 11 -41 3 -93 8 -115 10 -49 6 -672 14 -677 9z m672 -209
c25 -2 79 -7 120 -11 429 -36 944 -162 1405 -342 145 -57 607 -279 613 -294 2
-5 8 -9 12 -9 24 0 430 -259 529 -337 9 -7 63 -49 120 -93 286 -222 590 -520
832 -815 147 -179 364 -490 454 -650 101 -180 137 -247 206 -390 108 -226 192
-436 266 -670 37 -118 92 -314 99 -355 3 -14 11 -52 19 -85 21 -87 62 -312 71
-389 3 -23 7 -52 9 -66 3 -14 7 -52 11 -85 3 -33 7 -71 10 -85 26 -163 26
-759 -1 -1015 -16 -158 -22 -207 -41 -320 -8 -49 -17 -101 -19 -115 -25 -165
-116 -512 -193 -740 -50 -147 -133 -361 -146 -379 -5 -7 -11 -19 -12 -26 -8
-53 -245 -501 -367 -692 -102 -161 -292 -427 -341 -479 -6 -6 -23 -26 -38 -45
-28 -36 -34 -44 -126 -149 -80 -91 -362 -373 -457 -456 -575 -501 -1223 -861
-1935 -1074 -93 -28 -177 -53 -187 -54 -10 -2 -45 -11 -78 -19 -33 -9 -71 -18
-85 -21 -14 -2 -56 -11 -95 -19 -38 -9 -88 -18 -110 -21 -22 -4 -76 -13 -120
-20 -86 -16 -139 -23 -225 -32 -30 -3 -65 -7 -77 -9 -118 -19 -706 -27 -888
-12 -147 12 -276 25 -314 31 -14 3 -62 10 -106 16 -44 7 -89 14 -100 16 -11 3
-36 7 -55 10 -83 13 -276 57 -415 95 -551 150 -1039 372 -1520 694 -144 96
-389 276 -415 304 -3 4 -32 28 -65 56 -181 150 -446 417 -639 645 -75 88 -241
310 -292 390 -16 25 -31 47 -34 50 -3 3 -30 43 -60 90 -233 366 -445 822 -573
1235 -76 244 -159 607 -183 800 -2 17 -6 46 -9 65 -5 35 -14 108 -20 165 -27
260 -27 843 0 1040 3 17 7 58 10 91 3 34 7 70 9 80 2 11 9 55 15 99 51 353
170 792 311 1145 50 125 178 409 195 430 7 8 15 24 19 35 8 22 179 321 229
400 82 129 322 459 372 511 5 6 28 32 50 59 78 94 132 152 285 305 178 179
256 250 410 374 25 20 55 45 67 55 117 99 400 287 668 444 57 33 380 193 465
230 177 76 533 205 613 221 12 3 54 14 92 26 39 11 79 22 90 24 11 2 38 9 60
14 62 17 335 71 385 77 25 3 56 7 70 10 31 6 88 13 165 21 33 3 71 7 85 10 14
2 72 6 130 10 58 3 107 8 109 10 5 5 607 -4 661 -10z"/>
<path d="M3128 8217 c-176 -50 -329 -240 -431 -533 -38 -108 -82 -294 -92
-384 -4 -30 -10 -84 -15 -120 -8 -65 -6 -478 3 -515 3 -11 8 -47 12 -80 3 -33
13 -91 21 -130 9 -38 17 -79 19 -89 3 -11 19 -65 36 -120 118 -379 341 -613
561 -589 53 6 131 38 177 71 38 29 141 132 141 143 0 4 6 14 14 21 44 45 137
251 181 405 58 205 79 373 80 643 0 192 -9 316 -30 430 -4 19 -9 46 -12 60
-31 176 -119 407 -208 546 -119 186 -304 284 -457 241z"/>
<path d="M8437 8093 c-10 -3 -78 -46 -150 -97 -73 -50 -175 -121 -227 -158
-52 -36 -152 -105 -222 -154 -295 -206 -346 -242 -422 -295 -45 -30 -171 -118
-281 -195 -110 -77 -334 -233 -497 -347 -164 -114 -304 -218 -313 -230 -32
-46 -8 -118 48 -142 19 -8 44 -9 71 -4 22 4 61 10 86 12 25 3 86 10 135 16 50
6 106 13 125 16 206 24 694 25 825 1 11 -2 47 -7 80 -11 49 -6 176 -30 322
-61 116 -24 369 -109 561 -188 134 -55 148 -58 184 -40 63 32 77 103 31 153
-20 22 -74 48 -193 94 -580 228 -1035 299 -1665 264 l-130 -8 48 33 c26 18
150 105 276 193 126 88 297 207 380 265 83 58 233 162 333 233 101 70 190 132
198 137 17 12 162 112 230 160 25 17 90 63 145 101 120 84 133 96 144 136 11
39 -11 88 -50 109 -28 14 -40 15 -72 7z"/>
<path d="M9052 5740 c-17 -11 -35 -27 -40 -37 -5 -10 -13 -92 -16 -183 -4 -90
-9 -174 -11 -185 -2 -11 -6 -45 -9 -76 -4 -48 -17 -134 -31 -219 -18 -104 -44
-215 -75 -325 -11 -38 -23 -80 -25 -92 -23 -104 -149 -411 -243 -595 -242
-468 -606 -894 -1008 -1178 -166 -118 -418 -259 -604 -339 -181 -78 -508 -176
-690 -206 -19 -3 -60 -10 -90 -15 -30 -5 -80 -12 -110 -16 -30 -3 -66 -7 -80
-10 -153 -24 -620 -24 -860 0 -78 8 -138 -89 -94 -152 29 -42 48 -47 229 -59
203 -14 636 -7 745 11 14 3 45 7 70 10 145 19 134 17 260 41 497 96 981 307
1385 604 171 126 435 374 572 536 421 501 713 1133 818 1770 9 55 18 110 20
123 2 13 7 53 11 90 3 37 8 76 10 87 2 11 7 95 10 187 6 145 5 171 -10 192
-31 48 -88 63 -134 36z"/>
</g>
</svg>
